/* XPM */
static const char *SDL_icon_xpm[] = {
"64 64 5 1",
" 	c None",
".	c #6B6451",
"+	c #9F926D",
"@	c #CFBD8A",
"#	c #FFE7A6",
"                                                                ",
"                                                                ",
"                                                                ",
"                                                                ",
"                                                                ",
"                                                                ",
"                                                                ",
"                                                                ",
"                                                                ",
"                                                                ",
"                                                                ",
"                                                                ",
"                                                                ",
"                                                                ",
"                                                                ",
"                                                                ",
"                    ........................                    ",
"                ....++++...++++++++++...++++...                 ",
"                ....++++...++++++++++...++++...                 ",
"             ...+++++...++++++++++++++++...++++....             ",
"           ..++++++@.####++++++++++++++####.@++++++..           ",
"         ..+++++@@@.########################.@@@+++++..         ",
"         ..+++++@@@.########################.@@@+++++..         ",
"        .++++++@@..##########################..@@++++++.        ",
"       .+++++@@@.@@@########################@@@.@@@+++++.       ",
"     ..+++++@@@.@@@@@@@##################@@@@@@@.@@@+++++..     ",
"     ..+++++@@@.@@@@@@@##################@@@@@@@.@@@+++++..     ",
"    .++++++@@...@@@@@@@@@@@@@@@@@@@@@@@@@@@@@@@@...@@++++++.    ",
"   .+++++@@@.  .@@@@@@@@@@@@@@@@@@@@@@@@@@@@@@@@.  .@@@+++++.   ",
"   .++++@@@.   .@@@@@@@@@@@@@@@@@@@@@@@@@@@@@@@@.   .@@@++++.   ",
"   .++++@@@.   .@@@@@@@@@@@@@@@@@@@@@@@@@@@@@@@@.   .@@@++++.   ",
"   .++++@@@.   .####@@@@@@@@@@@@@@@@@@@@@@@@####.   .@@@++++.   ",
"   .++++@@@.   .################################.   .@@@++++.   ",
"   .++++@@@@.  .################################.  .@@@@++++.   ",
"   .++++@@@@.  .################################.  .@@@@++++.   ",
"   .++++@@@@@...################################...@@@@@++++.   ",
"   .+++++@@@@@@@...##########################...@@@@@@@+++++.   ",
"   .+++++++@@@@@@@@....##################....@@@@@@@@+++++++.   ",
"   .+++++++@@@@@@@@....##################....@@@@@@@@+++++++.   ",
"    .++++++++@@@@@@@@@@..................@@@@@@@@@@++++++++.    ",
"     ..++++++++++@@@@@@@@@@@@@@@@@@@@@@@@@@@@@@++++++++++..     ",
"       .+++++++++++++@@@@@@@@@@@@@@@@@@@@@@+++++++++++++.       ",
"       .+++++++++++++@@@@@@@@@@@@@@@@@@@@@@+++++++++++++.       ",
"        ...++++++++++++++++++++++++++++++++++++++++++...        ",
"           ..++++++++++++++++++++++++++++++++++++++..           ",
"             ....++++++++++++++++++++++++++++++....             ",
"             ....++++++++++++++++++++++++++++++....             ",
"                 ..............................                 ",
"                                                                ",
"                                                                ",
"                                                                ",
"                                                                ",
"                                                                ",
"                                                                ",
"                                                                ",
"                                                                ",
"                                                                ",
"                                                                ",
"                                                                ",
"                                                                ",
"                                                                ",
"                                                                ",
"                                                                ",
"                                                                "};
